PathFileType	4	(X/Y/Z)	pose_F01_0-96.trc
DataRate	CameraRate	NumFrames	NumMarkers	Units	OrigDataRate	OrigDataStartFrame	OrigNumFrames
30	30	15	21	m	30	64	96
Frame#	Time	CHip			RHip			RKnee			RAnkle			RBigToe			RSmallToe			RHeel			LHip			LKnee			LAnkle			LBigToe			LSmallToe			LHeel			Neck			Nose			RShoulder			RElbow			RWrist			LShoulder			LElbow			LWrist			
		X1	Y1	Z1	X2	Y2	Z2	X3	Y3	Z3	X4	Y4	Z4	X5	Y5	Z5	X6	Y6	Z6	X7	Y7	Z7	X8	Y8	Z8	X9	Y9	Z9	X10	Y10	Z10	X11	Y11	Z11	X12	Y12	Z12	X13	Y13	Z13	X14	Y14	Z14	X15	Y15	Z15	X16	Y16	Z16	X17	Y17	Z17	X18	Y18	Z18	X19	Y19	Z19	X20	Y20	Z20	X21	Y21	Z21	
64	2.1333333333333333	-0.24591414549117332	1.8487129649273575	-0.7766562921586383	-0.26225832150550443	1.8453979180049607	-0.7120498951308375																-0.2328376746808111	1.8505500949378497	-0.8366783675053721	-0.2391179041071814	1.711399796282106	-0.74991572094533													-0.24273578813010094	1.9997395879471924	-0.7951763941714212	-0.2193075409642936	2.0399588288240347	-0.8248425447086153	-0.2618129427301586	1.9976057865034373	-0.7014869927023074	-1.484006740746694	1.8500681132473968	0.6587345508442342	-0.2635574863864383	1.8848056772776784	-0.5786542860343603	-0.22319584692247077	2.002420721873647	-0.8858366347761989	-0.1944308229945882	1.9452466404296416	-0.9605932691517355	-0.2132030311483644	1.9765394129956766	-0.9105243492046979
65	2.1666666666666665	-0.24571995112108214	1.8495439317259106	-0.7769081234622118	-0.262119452134331	1.843552140454273	-0.7120542425503609																-1.0367861032596333	1.7522389957291833	-0.0762977748990802	-0.2391179041071814	1.711399796282106	-0.74991572094533													-0.24327424852976748	1.9994712134388202	-0.7869134702861385	-0.2186150431820597	2.0392330293988508	-0.833026608257	-0.26101320806170764	1.9963477080655634	-0.6985231470369863	-1.4712096325626909	1.8405876201515363	0.6494578525501219	-0.26059627408421593	1.8706370714173401	-0.5843799834250059	-0.22637772537578818	2.0036469926019422	-0.8754641469033246	-0.19926945159353368	1.9509639020346945	-0.945619879683487	-0.21428532575402148	1.9910160596307795	-0.9007782315418948
66	2.2	-0.24935178416322296	1.8458509275204869	-0.777246591178382	-0.2628252682690757	1.8411281427473514	-0.7115985773739666																-0.2339371163780128	1.84981650855538	-0.8394448666063425	-0.2391179041071814	1.711399796282106	-0.74991572094533													-0.24320332939470152	1.9993846944240212	-0.7869853507490394	-0.21474946827858316	2.0421442058820163	-0.8409309043201559	-0.26094171675938804	1.994893520494897	-0.6982187494338443	-1.437445871328572	1.8393113212956984	0.5916528982528805	-0.2606189558998215	1.860665153386641	-0.5831907210103785	-0.22408989206435703	2.003464648561804	-0.8776394934671793	-0.20080544790812244	1.9575426264468265	-0.9405895230407458	-0.2153676203596786	2.0054927062658825	-0.8910321138790918
67	2.2333333333333334	-0.24816331450634474	1.8445375704287048	-0.782279038306155	-0.26153557192616855	1.8410502192294556	-0.7167617345072821																-0.2348720627088012	1.8483748031061382	-0.8422647284665276	-0.23195322713638997	1.7158653754229272	-0.8333540333139581													-0.24490286514855408	1.9997422555945268	-0.792919369927367	-0.2148413625152955	2.0441198516766557	-0.852168287389313	-0.26182278472336723	1.9951456342796046	-0.7013407784855059	-0.2688742582396392	1.921727099191788	-0.6318062920726532	-0.25889702194107406	1.8455352848153819	-0.5833812927065957	-0.22718521456914048	2.001478925172967	-0.8783490828272039	-0.20139414060020494	1.9599964893774158	-0.9435931199567289	-0.21771643256453768	2.0118574352830447	-0.8785870497635194
68	2.2666666666666666	-0.24670348347535132	1.8441948170281466	-0.7876405732620666	-0.25712757314079987	1.8383944990440049	-0.7211792143592463																-0.2333719916374981	1.8479668092505186	-0.8475685492330078	-0.23195322713638997	1.7158653754229272	-0.8333540333139581													-0.24341572934325276	1.998804896124181	-0.7978280375012071	-0.2107430489574178	2.0466001537291225	-0.8594159382357303	-0.2604913136290117	1.9954772184513696	-0.706604901826348	-0.2654585594616917	1.918267292307369	-0.6473960316598288	-0.2556510560219912	1.8453043248635699	-0.5908572403430774	-0.22569087191524978	2.0014149070758314	-0.883450342042649	-0.20137848612957657	1.9622548901432961	-0.9549354243658145	-0.21650168680043988	2.0110643584838197	-0.885119323324122
69	2.3	-0.24412263947108676	1.8439836684675228	-0.7902348349537244	-0.2555408842852859	1.8406212142147218	-0.7268501991672247																-0.23328847259780783	1.8481545376392337	-0.8478344391469198	-0.23195322713638997	1.7158653754229272	-0.8333540333139581													-0.2420697244064269	2.000396512280148	-0.8033898997291693	-0.21241774377703546	2.047969615422375	-0.8656994520504083	-0.25802395277355894	1.9969861120683425	-0.7174439890846842	-1.3693752168600881	1.834565999679732	0.4792388767250613	-0.24575847275518312	1.8464631908014224	-0.6055146338360569	-0.22642219648600498	2.00263487614835	-0.8862455086260372	-0.1978023879601133	1.9643030917710227	-0.9657962090137758	-0.21528694103634208	2.0102712816845947	-0.8916515968847247
70	2.3333333333333335	-0.241043544321337	1.846277914342878	-0.8010786529512699	-0.2536004068828861	1.844013443814245	-0.7407534135844156																-1.0099432272529938	1.7556624185751737	-0.13223256817763854	-0.23195322713638997	1.7158653754229272	-0.8333540333139581													-0.2404519868080581	2.0016527538607307	-0.8087678198811328	-0.2132336510811647	2.050900329616322	-0.8691498570463306	-0.2545005791132145	1.9972759694509543	-0.7250870559645423	-1.3585053134973346	1.8320169851937806	0.462216872287717	-0.24120447258296449	1.8470277104528734	-0.6186072651018627	-0.22461977702375716	2.004036911194891	-0.8915613987683437	-0.1933662165223239	1.9704196700699785	-0.9736115133088518	-0.21407219527224428	2.0094782048853697	-0.8981838704453273
71	2.3666666666666667	-0.23947320170474634	1.845790856241543	-0.8066271265528258	-0.24986507220098475	1.8418978169564524	-0.7484680213274288																-0.9987994705498907	1.7549745067795266	-0.14871596263285256	-0.23195322713638997	1.7158653754229272	-0.8333540333139581													-0.24300464639951747	2.001049156741219	-0.8177120052842493	-0.21399374292345605	2.05312747083848	-0.8724452596438517	-0.25699772743724325	1.9985497212813967	-0.7341273154883998	-1.3258766289197448	1.827034059243263	0.4041918748845901	-0.24101925238563074	1.845097655062778	-0.6477497986500362	-0.22479194484856913	2.004054979948275	-0.902582974561617	-0.1916145392361014	1.9755601939735896	-0.9789742533518186	-0.21153080714825045	2.022012638876003	-0.9016061152114131
72	2.4	-0.2372562053262297	1.842988535382001	-0.8085328948977787	-0.2477617021937004	1.8402292170572	-0.7504744596918823																-0.9961373482356044	1.7531075495795903	-0.151812823479839	-0.23195322713638997	1.7158653754229272	-0.8333540333139581													-0.241599460944509	2.0013777877622485	-0.8228211775261188	-0.21380595052121426	2.0556429678463966	-0.8728000808426427	-0.25491821178934093	1.9973529819975333	-0.7364448415732182	-1.3138917944084225	1.8302411727711514	0.3769476615590694	-0.2405132292414269	1.8500718977524615	-0.6655679831287503	-0.22638748900360028	2.0048205392958787	-0.9087119753997559	-0.19151604989257934	1.9763246633691463	-0.979382194734125	-0.20844510084787843	2.0231817280810582	-0.9012606525703177
73	2.433333333333333	-0.23962417143780648	1.844069299411493	-0.8063483587684025	-0.24998304922059833	1.8400882910330896	-0.7482015619569949																-1.0041826828636846	1.7535492340106498	-0.13829163517904353	-0.23195322713638997	1.7158653754229272	-0.8333540333139581													-0.24073112337998878	2.0009884411125727	-0.8200314551833363	-0.215183641722559	2.0581085351879262	-0.8674126848296382	-0.25491791853615436	1.996079298825155	-0.7360901088412839	-1.309597605421206	1.8267133642088231	0.37118218879570875	-0.23776653675578308	1.8442490191174667	-0.6757724249634688	-0.22312352894029572	2.0034396930485676	-0.9078873197058038	-0.1883064322329103	1.9775586902734663	-0.9787773470427651	-0.21290636903065382	2.0246953209820586	-0.8963105106000189
74	2.466666666666667	-0.2385033400090504	1.8434555979336562	-0.8033570164053832	-0.25047660899774915	1.8398121885063685	-0.739815288491588																-1.0018700745279625	1.7505263274106382	-0.14023876074287034	-0.23195322713638997	1.7158653754229272	-0.8333540333139581													-0.24084111781118056	2.001219758111555	-0.8198392820305684	-0.21529491554465544	2.0577656488499314	-0.8673654808240375	-0.25707552878606327	1.9961415439815118	-0.7338886655743734	-1.3116734743696654	1.8266422886596887	0.37319080714335234	-0.23580733951617522	1.8489842611200964	-0.6818534799483176	-0.22557346670065612	2.0033895585281534	-0.9055213066288755	-0.18992838228043987	1.978162608188892	-0.9736014279765892	-0.21230511046144207	2.0230859827863124	-0.8934560390089703
75	2.5	-0.23895525735222148	1.8418029533359495	-0.8028650539833538	-0.2505838458245764	1.837639097772181	-0.739448211117168																-1.0070296308525781	1.7502630738881961	-0.13090256532602249	-0.23195322713638997	1.7158653754229272	-0.8333540333139581													-0.24300701733659927	2.001111259598919	-0.8176390518615072	-0.21752915686975105	2.0579276689916304	-0.8649784934750814	-0.2592343535682291	1.9960757491428411	-0.7316905890608454	-1.3165511250316848	1.8256757307034892	0.3784918991428551	-0.23597732413112055	1.849621247843429	-0.6820120804107385	-0.22478029102952082	2.0037686895129574	-0.9025323157204361	-0.19080025969479864	1.9780257317482597	-0.965191273973375	-0.21299933460045617	2.023292324687147	-0.8852496204964533
76	2.533333333333333	-0.24015985319048688	1.842016447510733	-0.7979277456168071	-0.2525275428435274	1.837849568592842	-0.7373924378856768																-0.22752873713453833	1.847863520608138	-0.8608874162560387	-0.23195322713638997	1.7158653754229272	-0.8333540333139581													-0.24444150492942376	1.999398960527184	-0.8122513574095043	-0.21915549467519174	2.0565733534190387	-0.8594855981649141	-0.2584433170606025	1.9958616619293352	-0.7286652407090312	-1.322685242453023	1.8233128436875718	0.3896604038590275	-0.23780696182297556	1.8415475267953496	-0.6754798578470926	-0.2288025745020338	2.0027255735621114	-0.8952737569467555	-0.19256431468405005	1.9752427958015544	-0.9597392440610806	-0.21614887357487167	2.0216146626488665	-0.8857240945949235
77	2.566666666666667	-0.24456420271110768	1.840490270270605	-0.7933539651310472	-0.25389254729882993	1.836640402130694	-0.7318378513791602																-1.0051633321717812	1.7471006123613522	-0.12753446156009834	-0.23195322713638997	1.7158653754229272	-0.8333540333139581													-0.24451406341977952	1.9999557670039232	-0.8122014037481482	-0.22378722271328177	2.0553434137926736	-0.8552189743251493	-0.26281356427326985	1.995863729995685	-0.7243387124344606	-0.25892513888504587	1.9145228341508154	-0.684882839959156	-0.24535997850480248	1.8382930969543887	-0.6632226778363196	-0.229504693930288	2.0033002860832965	-0.8981442636199438	-0.19132420380815401	1.9733910965640291	-0.9539098680609391	-0.2139404830142276	2.0213299004535332	-0.877343637333211
78	2.6	-0.24723791115908045	1.8438009155558885	-0.7910247194078104	-0.2586691877534977	1.8390371733044582	-0.7274184798094154																-1.0082999129561232	1.7510220358831585	-0.12297590102456968	-0.23195322713638997	1.7158653754229272	-0.8333540333139581													-0.2454136859721909	1.9997654531393532	-0.815050734352397	-0.22378173854349462	2.0554579629357783	-0.8551441041264755	-0.2637788518799163	1.9959513509510356	-0.7271205918135116	-1.3323086680512963	1.821718381387531	0.39968838860715766	-0.25227657621424315	1.8391138306041765	-0.6480939538087032	-0.22954742581196041	2.002965874581932	-0.8982792227932482	-0.1912923426991251	1.9713838362638527	-0.9538122012898952	-0.21349474546672206	2.0154001467389464	-0.8744476580895847
